<?xml version="1.0" encoding="utf-8"?><svg viewBox="0 0 512.05 512.05" xmlns="http://www.w3.org/2000/svg" xmlns:xlink="http://www.w3.org/1999/xlink"><style>:root>svg{display:none}:root>svg:target{display:block}</style><svg fill="none" viewBox="0 0 37 37" id="arrow-btn" xmlns="http://www.w3.org/2000/svg"><circle cx="18.5" cy="18.5" r="18.5" transform="matrix(0 -1 -1 0 37 37)" fill="#F15525"/></svg><svg viewBox="0 0 16 16" fill="none" id="btn-icon" xmlns="http://www.w3.org/2000/svg"><path d="M1.002 13.515a1 1 0 1 0 1.414 1.414l-1.414-1.414ZM15.709 1.222a1 1 0 0 0-1-1h-9a1 1 0 0 0 0 2h8v8a1 1 0 1 0 2 0v-9ZM2.416 14.93l13-13L14.002.515l-13 13 1.414 1.414Z" fill="#fff"/></svg><svg viewBox="0 0 15 15" fill="none" id="close-btn-icon" xmlns="http://www.w3.org/2000/svg"><path fill="#BCBCBC" d="M0 13.633 13.633 0l.974.974L.974 14.607z"/><path fill="#BCBCBC" d="M13.633 14.606 0 .973.974 0l13.633 13.633z"/></svg><svg viewBox="0 0 35 35" id="fb" xmlns="http://www.w3.org/2000/svg"><g clip-path="url(#da)"><path d="M34.888 17.437c0 9.63-7.807 17.437-17.437 17.437S.014 27.067.014 17.437 7.82 0 17.45 0s17.437 7.807 17.437 17.437Z"/><path d="M19.22 12.913h2.025v-2.94h-2.381v.011c-2.886.1-3.478 1.694-3.53 3.367h-.006v1.468h-1.965v2.88h1.965v7.717h2.962v-7.718h2.426l.468-2.879h-2.893v-.887c0-.565.383-1.019.928-1.019Z" fill="#fff"/></g><defs><clipPath id="da"><path fill="#fff" d="M0 0h35v35H0z"/></clipPath></defs></svg><svg fill="none" viewBox="0 0 58 58" id="info-icon-1" xmlns="http://www.w3.org/2000/svg"><g clip-path="url(#ea)"><path d="M57.103 11.702v42.77a2.628 2.628 0 0 1-2.637 2.631H3.533a2.628 2.628 0 0 1-2.637-2.63V11.701h56.207Z" fill="#fff"/><path d="M57.103 3.534v8.168H.896V3.534A2.633 2.633 0 0 1 3.533.897h50.933a2.633 2.633 0 0 1 2.637 2.637Z" fill="#38BFF2"/><path d="M8.117 6.297a1.38 1.38 0 0 1-2.758 0c0-.762.618-1.374 1.38-1.374.76 0 1.378.612 1.378 1.374ZM13.947 6.297a1.38 1.38 0 0 1-2.757 0c0-.762.617-1.374 1.378-1.374.762 0 1.38.612 1.38 1.374ZM19.78 6.297a1.38 1.38 0 0 1-2.759 0c0-.762.618-1.374 1.38-1.374.76 0 1.378.612 1.378 1.374ZM52.64 6.296c0 .761-.622 1.376-1.384 1.376H36.662a1.375 1.375 0 0 1-1.377-1.376c0-.762.615-1.37 1.377-1.37h14.595c.76 0 1.383.608 1.383 1.37Z" fill="#D7E9FF"/><path d="M54.466.299H3.534A3.238 3.238 0 0 0 .299 3.534v50.938a3.236 3.236 0 0 0 3.235 3.23h50.932a3.236 3.236 0 0 0 3.235-3.23V3.534A3.238 3.238 0 0 0 54.466.299ZM1.495 3.534c0-1.124.915-2.04 2.039-2.04h50.932c1.124 0 2.039.916 2.039 2.04v7.57H1.495v-7.57Zm55.01 50.938c0 1.121-.915 2.033-2.039 2.033H3.534a2.039 2.039 0 0 1-2.04-2.033V12.3h55.011v42.172Z" fill="#1A2E35"/><path d="M8.095 35.012c1.16 0 2.104.934 2.104 2.08v5.217c0 1.82 1.47 3.3 3.276 3.3a.598.598 0 1 0 0-1.196c-1.147 0-2.08-.944-2.08-2.104v-5.216a3.27 3.27 0 0 0-1.423-2.694 3.3 3.3 0 0 0 1.4-2.686v-5.217c0-1.16.933-2.104 2.08-2.104a.598.598 0 1 0 0-1.196c-1.806 0-3.276 1.48-3.276 3.3v5.217c0 1.141-.938 2.085-2.09 2.103-.786.013-.775 1.196.01 1.196ZM46.604 37.093v5.216c0 1.16-.934 2.104-2.08 2.104a.598.598 0 1 0 0 1.196c1.806 0 3.276-1.48 3.276-3.3v-5.216c0-1.148.943-2.08 2.103-2.08.785 0 .794-1.184.01-1.197-1.152-.018-2.09-.962-2.09-2.104v-5.216c0-1.82-1.47-3.3-3.277-3.3a.598.598 0 1 0 0 1.196c1.148 0 2.081.944 2.081 2.104v5.216a3.3 3.3 0 0 0 1.4 2.686 3.27 3.27 0 0 0-1.423 2.695ZM24.986 44.797a.597.597 0 0 0 .773-.342l7.598-19.674a.598.598 0 1 0-1.115-.431l-7.598 19.674a.598.598 0 0 0 .342.773ZM40.998 34.412l-6.893 4.658a.598.598 0 1 0 .67.991l7.624-5.153a.598.598 0 0 0 .001-.99l-7.624-5.173a.598.598 0 0 0-.672.99l6.894 4.677ZM15.599 34.906l7.553 5.154a.598.598 0 0 0 .674-.989l-6.83-4.66 6.831-4.678a.599.599 0 0 0-.676-.987l-7.553 5.173a.599.599 0 0 0 .001.987ZM6.738 4.325c-1.09 0-1.976.884-1.976 1.971 0 1.09.887 1.977 1.976 1.977a1.98 1.98 0 0 0 1.977-1.977 1.977 1.977 0 0 0-1.977-1.97Zm0 2.752c-.43 0-.78-.35-.78-.78 0-.428.35-.776.78-.776a.78.78 0 0 1 .782.776c0 .43-.35.78-.782.78ZM12.569 4.325c-1.09 0-1.977.884-1.977 1.971a1.98 1.98 0 0 0 1.977 1.977c1.09 0 1.976-.886 1.976-1.977a1.976 1.976 0 0 0-1.976-1.97Zm0 2.752a.78.78 0 1 1 0-1.556.779.779 0 1 1 0 1.556ZM18.4 4.325c-1.091 0-1.978.884-1.978 1.971a1.98 1.98 0 0 0 1.977 1.977c1.09 0 1.977-.886 1.977-1.977a1.976 1.976 0 0 0-1.977-1.97Zm0 2.752a.78.78 0 1 1 0-1.556.779.779 0 1 1 0 1.556ZM51.257 4.328H36.662a1.973 1.973 0 0 0-1.974 1.968c0 1.089.885 1.974 1.974 1.974h14.595a1.98 1.98 0 0 0 1.982-1.974c0-1.085-.89-1.968-1.982-1.968Zm0 2.747H36.662a.78.78 0 0 1-.779-.78c0-.432.343-.77.78-.77h14.594a.78.78 0 0 1 .786.77c0 .43-.353.78-.786.78Z" fill="#1A2E35"/></g><defs><clipPath id="ea"><path fill="#fff" d="M0 0h58v58H0z"/></clipPath></defs></svg><svg fill="none" viewBox="0 0 59 59" id="info-icon-2" xmlns="http://www.w3.org/2000/svg"><g clip-path="url(#fa)"><circle cx="29.5" cy="29.5" r="8.5" fill="#38BFF2"/><circle cx="41.5" cy="5.5" r="4.5" fill="#38BFF2"/><circle cx="5.5" cy="17.5" r="4.5" fill="#38BFF2"/><circle cx="17.5" cy="53.5" r="4.5" fill="#38BFF2"/><circle cx="53.5" cy="41.5" r="4.5" fill="#38BFF2"/><path d="M20.73 27.15c-1.295 4.836 1.585 9.824 6.42 11.12.784.21 1.572.31 2.347.31 4.009 0 7.687-2.679 8.773-6.73a9.018 9.018 0 0 0-.908-6.89 9.02 9.02 0 0 0-5.512-4.23 9.017 9.017 0 0 0-6.89.908 9.021 9.021 0 0 0-4.23 5.513Zm8.772-5.135c.639 0 1.289.083 1.935.256a7.432 7.432 0 0 1 4.544 3.487 7.433 7.433 0 0 1 .748 5.679c-1.068 3.986-5.18 6.363-9.166 5.292-3.986-1.068-6.36-5.18-5.292-9.166.895-3.34 3.926-5.548 7.23-5.548Zm-15.774 3.937.058.002c.414 0 .764-.321.794-.74C15.582 11.23 26.064 5.25 36.275 5.403c.036.819.266 1.622.688 2.352a5.137 5.137 0 0 0 3.14 2.41 5.143 5.143 0 0 0 3.923-.517 5.13 5.13 0 0 0 2.084-2.264c3.724 1.439 7.2 3.584 10.336 6.403a.795.795 0 0 0 1.126-.06.797.797 0 0 0-.06-1.125c-3.315-2.981-7-5.244-10.951-6.753A5.175 5.175 0 0 0 42.778.176a5.176 5.176 0 0 0-6.327 3.64C23.52 3.528 13.914 12.19 12.99 25.099c-.031.44.3.82.739.853ZM37.986 4.245a3.581 3.581 0 0 1 4.38-2.528 3.58 3.58 0 0 1 2.528 4.38 3.58 3.58 0 0 1-4.38 2.527 3.58 3.58 0 0 1-2.528-4.379ZM3.816 22.549c-.288 12.93 8.373 22.536 21.283 23.461l.058.003a.797.797 0 0 0 .056-1.593C11.227 43.418 5.244 32.929 5.404 22.717a5.14 5.14 0 0 0 2.352-.68 5.137 5.137 0 0 0 2.41-3.14 5.136 5.136 0 0 0-.518-3.922 5.13 5.13 0 0 0-2.263-2.085c1.439-3.724 3.584-7.2 6.403-10.337a.797.797 0 1 0-1.185-1.066c-2.981 3.316-5.244 7-6.753 10.952-2.534-.337-4.995 1.249-5.673 3.783a5.176 5.176 0 0 0 3.639 6.327Zm-2.099-5.915a3.581 3.581 0 0 1 4.38-2.528 3.58 3.58 0 0 1 2.528 4.38 3.58 3.58 0 0 1-4.38 2.527 3.58 3.58 0 0 1-2.528-4.379Zm43.555 16.414a.79.79 0 0 0-.852.739c-1.001 13.983-11.48 19.969-21.695 19.81a5.143 5.143 0 0 0-.688-2.353 5.137 5.137 0 0 0-3.14-2.41 5.138 5.138 0 0 0-3.922.518 5.13 5.13 0 0 0-2.085 2.263c-3.724-1.439-7.2-3.584-10.336-6.403a.797.797 0 1 0-1.067 1.185c3.317 2.981 7 5.244 10.952 6.753A5.175 5.175 0 0 0 17.56 59a5.18 5.18 0 0 0 4.99-3.817c.209.005.42.015.626.015 12.614 0 21.925-8.596 22.835-21.297a.798.798 0 0 0-.738-.853ZM21.014 54.755a3.58 3.58 0 0 1-4.38 2.528 3.58 3.58 0 0 1-2.528-4.38 3.581 3.581 0 0 1 4.38-2.527 3.58 3.58 0 0 1 2.527 4.379Zm34.17-18.304c.288-12.93-8.373-22.536-21.283-23.462a.797.797 0 1 0-.114 1.591c13.983 1.002 19.967 11.486 19.809 21.695a5.145 5.145 0 0 0-2.352.688 5.137 5.137 0 0 0-2.41 3.14 5.136 5.136 0 0 0 .518 3.923 5.13 5.13 0 0 0 2.263 2.084c-1.439 3.724-3.584 7.2-6.403 10.337a.797.797 0 1 0 1.185 1.066c2.98-3.315 5.243-6.998 6.751-10.948a5.18 5.18 0 0 0 5.675-3.787 5.177 5.177 0 0 0-3.639-6.327Zm2.099 5.915a3.58 3.58 0 0 1-4.38 2.528 3.58 3.58 0 0 1-2.528-4.38 3.581 3.581 0 0 1 4.38-2.527 3.58 3.58 0 0 1 2.528 4.379Z" fill="#1A2E35"/></g><defs><clipPath id="fa"><path fill="#fff" d="M0 0h59v59H0z"/></clipPath></defs></svg><svg fill="none" viewBox="0 0 70 61" id="info-icon-3" xmlns="http://www.w3.org/2000/svg"><path d="M68.917 4.033v35.58H1.082V4.033c0-1.618 1.292-2.928 2.887-2.928H66.03c1.595 0 2.887 1.31 2.887 2.928Z" fill="#fff"/><path d="M1.082 39.614v6.54c0 1.617 1.292 2.928 2.887 2.928H66.03c1.595 0 2.887-1.311 2.887-2.928v-6.54H1.082Z" fill="#38BFF2"/><path d="M27.43 49.082h15.14v6.89H27.43v-6.89Z" fill="#D7E9FF"/><path d="m48.64 56.824 1.805 1.82c.456.461.135 1.252-.51 1.252H20.068c-.644 0-.965-.79-.51-1.251l1.805-1.821a2.865 2.865 0 0 1 2.036-.852h23.206c.764 0 1.495.306 2.036.852Z" fill="#38BFF2"/><path d="M35 45.804c.794 0 1.437-.652 1.437-1.456 0-.805-.643-1.457-1.436-1.457-.794 0-1.436.652-1.436 1.457 0 .804.642 1.456 1.436 1.456Z" fill="#D7E9FF"/><path d="M69.64 4.032c0-2.018-1.619-3.66-3.609-3.66H3.97C1.98.373.36 2.015.36 4.033v42.122c0 2.018 1.62 3.66 3.609 3.66h22.739v5.426h-3.312c-.96 0-1.864.378-2.544 1.065l-1.805 1.821c-.91.919-.268 2.502 1.018 2.502h29.87c1.284 0 1.928-1.582 1.017-2.502l-1.805-1.82a3.554 3.554 0 0 0-2.544-1.066h-3.312v-5.426h22.74c1.989 0 3.608-1.642 3.608-3.66V4.032Zm-67.835 0c0-1.21.97-2.195 2.165-2.195H66.03c1.194 0 2.165.984 2.165 2.195v34.85H1.805V4.031Zm46.325 53.31v.001l1.805 1.82h-29.87l1.806-1.82c.408-.412.95-.64 1.526-.64h23.207c.576 0 1.118.228 1.526.64Zm-6.28-2.102H28.151v-5.426h13.697v5.425Zm26.346-9.086c0 1.211-.97 2.196-2.165 2.196H3.97c-1.194 0-2.165-.985-2.165-2.196v-5.808h66.391v5.808Z" fill="#1A2E35"/><path d="M35 46.537c1.19 0 2.158-.982 2.158-2.189 0-1.206-.968-2.189-2.158-2.189s-2.158.982-2.158 2.19c0 1.206.968 2.188 2.158 2.188Zm0-2.914a.72.72 0 0 1 .714.725c0 .4-.32.725-.714.725a.72.72 0 0 1-.715-.725c0-.4.32-.725.715-.725ZM56.066 9H7.722A.726.726 0 0 0 7 9.732c0 .405.323.732.722.732h48.344a.726.726 0 0 0 .722-.732.726.726 0 0 0-.721-.732ZM56.066 14H7.722a.726.726 0 0 0-.722.732c0 .405.323.732.722.732h48.344a.726.726 0 0 0 .722-.732.726.726 0 0 0-.721-.732ZM46.066 19H7.722a.726.726 0 0 0-.722.732c0 .405.323.732.722.732h38.344a.726.726 0 0 0 .722-.732.726.726 0 0 0-.721-.732ZM36.066 24H7.722a.726.726 0 0 0-.722.732c0 .405.323.732.722.732h28.344a.726.726 0 0 0 .722-.732.726.726 0 0 0-.721-.732ZM26.067 29H7.722a.726.726 0 0 0-.722.732c0 .405.323.732.722.732h18.345a.726.726 0 0 0 .721-.732.726.726 0 0 0-.721-.732Z" fill="#1A2E35"/></svg><svg fill="none" viewBox="0 0 72 72" id="info-icon-4" xmlns="http://www.w3.org/2000/svg"><path d="M63.555 11.12v52.112a2.474 2.474 0 0 1-2.476 2.476H10.974A2.474 2.474 0 0 1 8.5 63.232v-3.244a4.83 4.83 0 0 1-3.42-1.42 4.792 4.792 0 0 1-1.42-3.427h4.84v-44.02a2.474 2.474 0 0 1 2.475-2.476H61.08a2.474 2.474 0 0 1 2.476 2.476Z" fill="#fff"/><path d="M8.688 59.41c-2.56 0-3.81-3.05-4.116-4.574l49.85-.457c.941 3.765 3.071 4.884 4.428 5.03h.603a2.63 2.63 0 0 1-.603 0H8.688ZM19.181 27.853a3.916 3.916 0 0 0-3.915 3.907 3.912 3.912 0 0 0 7.823 0 3.911 3.911 0 0 0-3.908-3.907Z" fill="#38BFF2"/><path d="M19.181 27.853a3.916 3.916 0 0 0-3.915 3.907 3.912 3.912 0 0 0 7.823 0 3.912 3.912 0 0 0-3.908-3.907Zm0 6.512a2.612 2.612 0 0 1-2.612-2.605 2.611 2.611 0 0 1 2.613-2.604 2.607 2.607 0 0 1 2.604 2.604 2.607 2.607 0 0 1-2.605 2.605Z" fill="#1A2E35"/><path d="M30.752 27.853a3.916 3.916 0 0 0-3.916 3.907 3.912 3.912 0 0 0 7.823 0 3.912 3.912 0 0 0-3.907-3.907Z" fill="#38BFF2"/><path d="M30.752 27.853a3.916 3.916 0 0 0-3.916 3.907 3.912 3.912 0 0 0 7.823 0 3.912 3.912 0 0 0-3.907-3.907Zm0 6.512a2.612 2.612 0 0 1-2.613-2.605 2.611 2.611 0 0 1 2.613-2.604 2.607 2.607 0 0 1 2.604 2.604 2.608 2.608 0 0 1-2.604 2.605Z" fill="#1A2E35"/><path d="M42.324 27.931a3.916 3.916 0 0 0-3.916 3.907 3.912 3.912 0 0 0 7.823 0 3.912 3.912 0 0 0-3.907-3.907Z" fill="#38BFF2"/><path d="M42.324 27.853a3.916 3.916 0 0 0-3.916 3.907 3.912 3.912 0 0 0 7.823 0 3.912 3.912 0 0 0-3.907-3.907Zm0 6.512a2.612 2.612 0 0 1-2.613-2.605 2.611 2.611 0 0 1 2.613-2.604 2.607 2.607 0 0 1 2.604 2.604 2.608 2.608 0 0 1-2.604 2.605Z" fill="#1A2E35"/><path d="M53.894 35.668a3.912 3.912 0 0 0 3.908-3.908 3.912 3.912 0 0 0-7.824 0 3.916 3.916 0 0 0 3.916 3.908Z" fill="#38BFF2"/><path d="M53.894 35.668a3.912 3.912 0 0 0 3.908-3.908 3.912 3.912 0 0 0-7.824 0 3.916 3.916 0 0 0 3.916 3.908Zm0-6.512A2.607 2.607 0 0 1 56.5 31.76a2.608 2.608 0 0 1-5.218 0 2.611 2.611 0 0 1 2.613-2.604Z" fill="#1A2E35"/><path d="M19.181 38.83a3.916 3.916 0 0 0-3.915 3.907 3.911 3.911 0 0 0 7.823 0 3.912 3.912 0 0 0-3.908-3.908Z" fill="#38BFF2"/><path d="M19.181 38.83a3.916 3.916 0 0 0-3.915 3.907 3.911 3.911 0 0 0 7.823 0 3.912 3.912 0 0 0-3.908-3.908Zm0 6.51a2.611 2.611 0 0 1-2.612-2.603 2.607 2.607 0 0 1 5.217 0 2.607 2.607 0 0 1-2.604 2.604Z" fill="#1A2E35"/><path d="M30.752 38.83a3.916 3.916 0 0 0-3.916 3.907 3.912 3.912 0 0 0 7.823 0 3.912 3.912 0 0 0-3.907-3.908Z" fill="#38BFF2"/><path d="M30.752 38.83a3.916 3.916 0 0 0-3.916 3.907 3.912 3.912 0 0 0 7.823 0 3.912 3.912 0 0 0-3.907-3.908Zm0 6.51a2.611 2.611 0 0 1-2.613-2.603 2.608 2.608 0 0 1 5.217 0 2.607 2.607 0 0 1-2.604 2.604ZM42.324 38.83a3.916 3.916 0 0 0-3.916 3.907 3.912 3.912 0 0 0 7.823 0 3.912 3.912 0 0 0-3.907-3.908Zm0 6.51a2.611 2.611 0 0 1-2.613-2.603 2.608 2.608 0 0 1 5.217 0 2.607 2.607 0 0 1-2.604 2.604ZM57.802 42.737a3.912 3.912 0 0 0-7.824 0 3.912 3.912 0 0 0 7.823 0Zm-3.908 2.604a2.611 2.611 0 0 1-2.612-2.604 2.608 2.608 0 0 1 5.217 0 2.607 2.607 0 0 1-2.605 2.604Z" fill="#1A2E35"/><path d="M61.586 7.431h-5.229V3.906a.651.651 0 1 0-1.303 0v3.525H16.458V3.906a.651.651 0 1 0-1.303 0v3.525h-3.673a3.13 3.13 0 0 0-3.126 3.127L8.354 53.93h-4.19a.651.651 0 0 0-.652.651c0 2.893 2.184 5.14 4.842 5.453v2.637a3.13 3.13 0 0 0 3.127 3.127h50.105a3.13 3.13 0 0 0 3.127-3.127V10.558a3.13 3.13 0 0 0-3.127-3.127ZM11.482 8.734h3.673v5.17a.651.651 0 1 0 1.303 0v-5.17h38.596v5.17a.651.651 0 1 0 1.303 0v-5.17h5.229c1.005 0 1.824.818 1.824 1.824v8.515H9.658v-8.515c0-1.006.819-1.824 1.824-1.824ZM9.657 20.377H63.41v34.202a4.197 4.197 0 0 1-4.187 4.194h-.005a4.192 4.192 0 0 1-4.193-4.193.651.651 0 0 0-.651-.651H9.657V20.377ZM4.864 55.232h48.897a5.47 5.47 0 0 0 1.904 3.54H9.008a4.193 4.193 0 0 1-4.143-3.54ZM63.41 62.67a1.826 1.826 0 0 1-1.824 1.824H11.48a1.826 1.826 0 0 1-1.824-1.824v-2.593H59.22c1.678 0 3.18-.76 4.189-1.951v4.544Z" fill="#1A2E35"/></svg><svg fill="none" viewBox="0 0 64 57" id="info-icon-5" xmlns="http://www.w3.org/2000/svg"><path d="M.75 6C.75 3.1 3.1.75 6 .75h37.327c2.9 0 5.25 2.35 5.25 5.25v28.558c0 2.9-2.35 5.25-5.25 5.25H19.419c-1.716 0-3.406.41-4.93 1.197l-11.916 6.15A1.25 1.25 0 0 1 .75 46.044V6Z" fill="#fff" stroke="#263238" stroke-width="1.5"/><path d="M51.726 13.154h4.755a6 6 0 0 1 6 6v34.324c0 1.552-1.692 2.512-3.025 1.717l-8.651-5.162a10 10 0 0 0-5.124-1.413H27.245a5.322 5.322 0 0 1-5.322-5.322" stroke="#263238" stroke-width="1.5"/><rect x="10.211" y="12.404" width="30" height="3.692" rx="1.846" fill="#38BFF2" stroke="#263238" stroke-width="1.5"/><rect x="10.211" y="20.077" width="23.423" height="3.692" rx="1.846" fill="#38BFF2" stroke="#263238" stroke-width="1.5"/></svg><svg fill="none" viewBox="0 0 59 59" id="info-icon-6" xmlns="http://www.w3.org/2000/svg"><g clip-path="url(#ja)"><path d="M49.916 49.922c11.28-11.279 11.28-29.565 0-40.844-11.278-11.279-29.565-11.279-40.844 0-11.278 11.279-11.278 29.565 0 40.844 11.28 11.279 29.566 11.279 40.844 0Z" fill="#38BFF2"/><path d="M29.501 52.24c12.559 0 22.74-10.181 22.74-22.74S42.06 6.76 29.5 6.76c-12.558 0-22.74 10.181-22.74 22.74s10.182 22.74 22.74 22.74Z" fill="#fff"/><path d="M29.5 0C13.234 0 0 13.234 0 29.5S13.234 59 29.5 59 59 45.766 59 29.5 45.766 0 29.5 0Zm0 57.77c-15.588 0-28.27-12.682-28.27-28.27S13.911 1.23 29.5 1.23 57.77 13.911 57.77 29.5 45.089 57.77 29.5 57.77Z" fill="#1A2E35"/><path d="M29.5 6.146C16.624 6.146 6.147 16.622 6.147 29.5c0 12.877 10.477 23.354 23.355 23.354 12.877 0 23.354-10.477 23.354-23.354 0-12.878-10.477-23.354-23.354-23.354Zm0 45.479C17.3 51.625 7.377 41.7 7.377 29.5S17.3 7.375 29.5 7.375 51.626 17.3 51.626 29.5 41.7 51.625 29.5 51.625Z" fill="#1A2E35"/><path d="M31.962 16.215h-8.174c-.01 0-.02-.006-.03-.006a.615.615 0 0 0-.614.614V28.581h-2.287a.615.615 0 0 0 0 1.23h2.287v2.601h-2.287a.615.615 0 0 0 0 1.229h2.287v8.535a.615.615 0 0 0 1.229 0v-8.535h11.09a.615.615 0 0 0 0-1.229h-11.09V29.81H31.53c3.77 0 6.935-2.745 7.208-6.25v-.001c.316-4.075-2.901-7.344-6.777-7.344Zm5.55 7.25v-.001c-.222 2.87-2.85 5.117-5.98 5.117H24.372V17.444h7.588a5.562 5.562 0 0 1 5.552 6.02Z" fill="#1A2E35"/></g><defs><clipPath id="ja"><path fill="#fff" d="M0 0h59v59H0z"/></clipPath></defs></svg><svg fill="none" viewBox="0 0 60 60" id="info-icon-7" xmlns="http://www.w3.org/2000/svg"><path d="M39.268 4.02v51.96a3.093 3.093 0 0 1-3.093 3.092H8.249a3.093 3.093 0 0 1-3.093-3.093V4.021A3.093 3.093 0 0 1 8.25.928h27.926a3.093 3.093 0 0 1 3.093 3.093Z" fill="#fff"/><path d="M30.816.928v2.47A2.474 2.474 0 0 1 28.34 5.87h-12.26a2.474 2.474 0 0 1-2.474-2.474V.927h17.209ZM54.846 20.765v19.707a2.474 2.474 0 0 1-2.474 2.474H22.21V18.291h30.16a2.474 2.474 0 0 1 2.475 2.474Z" fill="#38BFF2"/><path d="M22.21 23.348h32.636v6.13H22.211v-6.13Z" fill="#D7E9FF"/><path d="M14.056 54.742a.618.618 0 1 0 0 1.237h16.31a.618.618 0 1 0 0-1.237h-16.31ZM26.697 4.018H27.8a.618.618 0 1 0 0-1.237h-1.104a.618.618 0 1 0 0 1.237ZM16.62 4.018h7.18a.618.618 0 1 0 0-1.237h-7.18a.618.618 0 1 0 0 1.237Z" fill="#1A2E35"/><path d="M52.371 17.672H39.885V4.021a3.715 3.715 0 0 0-3.71-3.712H8.247a3.715 3.715 0 0 0-3.71 3.712v51.958a3.715 3.715 0 0 0 3.71 3.712h27.926a3.715 3.715 0 0 0 3.711-3.712V43.565h12.486a3.096 3.096 0 0 0 3.093-3.093V20.765a3.096 3.096 0 0 0-3.093-3.093Zm1.856 3.093v1.964H22.829v-3.82h29.542c1.024 0 1.856.833 1.856 1.856Zm0 8.095H22.829v-4.894h31.398v4.893ZM30.197 1.546v1.851a1.858 1.858 0 0 1-1.856 1.856H16.08a1.858 1.858 0 0 1-1.855-1.856v-1.85h15.97Zm8.451 54.433a2.477 2.477 0 0 1-2.474 2.475H8.248a2.477 2.477 0 0 1-2.474-2.475V4.021a2.477 2.477 0 0 1 2.474-2.475h4.74v1.851a3.096 3.096 0 0 0 3.093 3.093h12.26a3.096 3.096 0 0 0 3.093-3.093v-1.85h4.74a2.477 2.477 0 0 1 2.474 2.474v13.651H22.83v-2.79a.618.618 0 1 0-1.237 0v31.466a.618.618 0 1 0 1.237 0v-2.783h15.82v12.414Zm13.723-13.651H22.83v-7.56h20.45a.618.618 0 1 0 0-1.238H22.83v-3.433h31.398v10.375a1.858 1.858 0 0 1-1.856 1.856Z" fill="#1A2E35"/><path d="M43.28 37.657h-1.773a.618.618 0 1 0 0 1.237h1.772a.618.618 0 1 0 0-1.237ZM38.215 37.657h-1.772a.618.618 0 1 0 0 1.237h1.772a.618.618 0 1 0 0-1.237ZM33.148 37.657h-1.772a.618.618 0 1 0 0 1.237h1.772a.618.618 0 1 0 0-1.237ZM28.084 37.657h-1.772a.618.618 0 1 0 0 1.237h1.772a.618.618 0 1 0 0-1.237Z" fill="#1A2E35"/></svg><svg viewBox="0 0 35 35" id="insta" xmlns="http://www.w3.org/2000/svg"><g clip-path="url(#la)"><path d="M34.888 17.437c0 9.63-7.807 17.437-17.437 17.437S.014 27.067.014 17.437 7.82 0 17.45 0s17.437 7.807 17.437 17.437Z"/><path d="M21.4 8.686h-8.188A4.839 4.839 0 0 0 8.38 13.52v8.188a4.839 4.839 0 0 0 4.833 4.834h8.19a4.839 4.839 0 0 0 4.832-4.834V13.52a4.839 4.839 0 0 0-4.833-4.834Zm-4.093 13.81a4.888 4.888 0 0 1-4.883-4.882 4.888 4.888 0 0 1 4.883-4.882 4.888 4.888 0 0 1 4.882 4.882 4.888 4.888 0 0 1-4.883 4.882Zm4.998-8.613a1.444 1.444 0 0 1-1.442-1.442c0-.796.647-1.443 1.442-1.443.796 0 1.443.647 1.443 1.443 0 .795-.647 1.442-1.443 1.442Z" fill="#fff"/><path d="M17.306 13.779a3.84 3.84 0 0 0-3.835 3.835 3.84 3.84 0 0 0 3.835 3.836 3.84 3.84 0 0 0 3.835-3.836 3.84 3.84 0 0 0-3.835-3.835ZM22.306 12.044a.396.396 0 1 0 .001.793.396.396 0 0 0-.001-.793Z" fill="#fff"/></g><defs><clipPath id="la"><path fill="#fff" d="M0 0h35v35H0z"/></clipPath></defs></svg><svg viewBox="0 0 62 19" fill="none" id="logo" xmlns="http://www.w3.org/2000/svg"><path d="M8.997 18.312c-2.544 0-4.648-.84-6.312-2.52C1.037 14.112.213 12.048.213 9.6s.824-4.512 2.472-6.192C4.349 1.728 6.453.888 8.997.888c1.536 0 2.944.368 4.224 1.104 1.296.736 2.304 1.728 3.024 2.976L14.3 6.096c-.48-.928-1.2-1.664-2.16-2.208-.944-.56-1.992-.84-3.144-.84-1.936 0-3.52.624-4.752 1.872C3.029 6.168 2.42 7.728 2.42 9.6c0 1.856.608 3.408 1.824 4.656 1.232 1.248 2.816 1.872 4.752 1.872 1.152 0 2.2-.272 3.144-.816.96-.56 1.68-1.296 2.16-2.208l1.944 1.104c-.704 1.248-1.704 2.248-3 3-1.296.736-2.712 1.104-4.248 1.104Z" fill="#38BFF2"/><path d="M28.755 16.488c-1.232 1.216-2.728 1.824-4.488 1.824-1.76 0-3.256-.608-4.488-1.824-1.216-1.216-1.824-2.712-1.824-4.488 0-1.776.608-3.272 1.824-4.488 1.232-1.216 2.728-1.824 4.488-1.824 1.76 0 3.256.608 4.488 1.824 1.232 1.216 1.848 2.712 1.848 4.488 0 1.776-.616 3.272-1.848 4.488Zm-4.488-.216c1.2 0 2.208-.408 3.024-1.224.816-.816 1.224-1.832 1.224-3.048s-.408-2.232-1.224-3.048c-.816-.816-1.824-1.224-3.024-1.224-1.184 0-2.184.408-3 1.224-.816.816-1.224 1.832-1.224 3.048s.408 2.232 1.224 3.048c.816.816 1.816 1.224 3 1.224Zm27.488-3.312c.208 1.072.696 1.904 1.464 2.496.784.592 1.744.888 2.88.888 1.584 0 2.736-.584 3.456-1.752l1.776 1.008c-1.168 1.808-2.928 2.712-5.28 2.712-1.904 0-3.456-.592-4.656-1.776-1.184-1.2-1.776-2.712-1.776-4.536 0-1.808.584-3.312 1.752-4.512 1.168-1.2 2.68-1.8 4.536-1.8 1.76 0 3.192.624 4.296 1.872 1.12 1.232 1.68 2.72 1.68 4.464 0 .304-.024.616-.072.936H51.755Zm4.152-5.304c-1.12 0-2.048.32-2.784.96-.736.624-1.192 1.464-1.368 2.52h8.016c-.176-1.136-.624-2-1.344-2.592-.72-.592-1.56-.888-2.52-.888Z" fill="#000"/><path d="M39.833 1.2c2.288 0 4.184.816 5.688 2.448 1.52 1.616 2.28 3.6 2.28 5.952s-.76 4.344-2.28 5.976C44.015 17.192 42.12 18 39.832 18H33.28V1.2h6.552Zm0 14.688c1.712 0 3.111-.6 4.2-1.8 1.087-1.2 1.631-2.696 1.631-4.488 0-1.792-.544-3.288-1.632-4.488-1.087-1.2-2.487-1.8-4.2-1.8h-4.32v12.576h4.32Z" fill="#F15525"/></svg><svg fill="red" viewBox="0 0 512.053 512.053" style="enable-background:new 0 0 512.053 512.053" xml:space="preserve" id="map-mark" xmlns="http://www.w3.org/2000/svg"><path d="M365.027 44.5c-30-29.667-66.333-44.5-109-44.5s-79 14.833-109 44.5-45 65.5-45 107.5c0 25.333 12.833 67.667 38.5 127 25.667 59.334 51.333 113.334 77 162s38.5 72.334 38.5 71c4-7.334 9.5-17.334 16.5-30s19.333-36.5 37-71.5 33.167-67.166 46.5-96.5c13.334-29.332 25.667-59.667 37-91s17-55 17-71c0-42-15-77.833-45-107.5zm-76 139.5c-9.333 9.333-20.5 14-33.5 14s-24.167-4.667-33.5-14-14-20.5-14-33.5 4.667-24 14-33 20.5-13.5 33.5-13.5 24.167 4.5 33.5 13.5 14 20 14 33-4.667 24.167-14 33.5z"/></svg><svg viewBox="0 0 35 35" id="vk" xmlns="http://www.w3.org/2000/svg"><g clip-path="url(#oa)"><path d="M34.874 17.437c0 9.63-7.807 17.437-17.437 17.437S0 27.067 0 17.437 7.807 0 17.437 0s17.437 7.807 17.437 17.437Z"/><path fill-rule="evenodd" clip-rule="evenodd" d="M16.85 22.958h1.115s.337-.037.51-.222c.158-.17.153-.489.153-.489s-.022-1.492.672-1.712c.685-.216 1.564 1.443 2.496 2.08.705.483 1.24.378 1.24.378l2.492-.035s1.304-.08.686-1.102c-.05-.084-.36-.757-1.853-2.139-1.562-1.446-1.353-1.212.529-3.714 1.146-1.524 1.605-2.454 1.461-2.852-.136-.38-.98-.28-.98-.28l-2.805.018s-.208-.028-.362.064c-.15.09-.248.3-.248.3s-.444 1.18-1.036 2.182c-1.25 2.116-1.75 2.228-1.953 2.096-.475-.306-.357-1.23-.357-1.886 0-2.05.312-2.906-.607-3.127-.305-.074-.53-.122-1.31-.13-1-.01-1.848.003-2.328.238-.319.155-.565.503-.415.523.186.025.606.113.828.415.288.39.278 1.267.278 1.267s.165 2.413-.386 2.713c-.378.206-.897-.214-2.011-2.134a17.826 17.826 0 0 1-1.002-2.07s-.083-.203-.23-.312c-.18-.131-.432-.173-.432-.173l-2.666.017s-.4.011-.547.185c-.131.154-.01.474-.01.474s2.087 4.87 4.45 7.324c2.167 2.25 4.628 2.103 4.628 2.103Z" fill="#fff"/></g><defs><clipPath id="oa"><path fill="#fff" d="M0 0h35v35H0z"/></clipPath></defs></svg><svg viewBox="0 0 35 35" id="yt" xmlns="http://www.w3.org/2000/svg"><g clip-path="url(#pa)"><path d="M34.94 17.463c0 9.645-7.819 17.463-17.463 17.463-9.645 0-17.463-7.818-17.463-17.463C.014 7.82 7.832 0 17.477 0 27.12 0 34.94 7.819 34.94 17.463Z"/><path d="M26.474 11.67c-.71-.844-2.02-1.188-4.52-1.188h-9.081c-2.56 0-3.891.367-4.598 1.264-.69.876-.69 2.166-.69 3.951V19.1c0 3.458.819 5.214 5.288 5.214h9.08c2.17 0 3.372-.303 4.15-1.048.797-.763 1.137-2.01 1.137-4.166v-3.403c0-1.883-.053-3.18-.766-4.027Zm-6.27 6.198-4.123 2.155a.633.633 0 0 1-.928-.562v-4.296a.634.634 0 0 1 .926-.563l4.123 2.142a.634.634 0 0 1 .002 1.124Z" fill="#fff"/></g><defs><clipPath id="pa"><path fill="#fff" d="M0 0h35v35H0z"/></clipPath></defs></svg></svg>